<svg xmlns="http://www.w3.org/2000/svg" width="64" height="64" enable-background="new 0 0 64 64" viewBox="0 0 64 64"><path fill="#FFCE54" d="M10.297,37.498c4.679,7.504,13.001,12.498,22.498,12.498s17.82-4.994,22.5-12.498H10.297z"/><path fill="#FFCE54" d="M32.734,5.498c-20.485,0-26.5,16.432-26.5,16.432v17.568l7.091,2c0,0,2.012,0.545,5.876,3.018h27.066
			c3.864-2.473,5.876-3.018,5.876-3.018l7.091-2V21.93C59.234,21.93,53.22,5.498,32.734,5.498z"/><path fill="#E6E9ED" d="M19.204,19.498c0-0.551,0.45-1,1-1h25.062c0.55,0,1,0.449,1,1v17c0,0.549-0.45,1-1,1H20.204
			c-0.55,0-1-0.451-1-1V19.498z"/><path fill="#FC6E51" d="M30.766,12.998c0,7.178-5.821,12.998-13,12.998c-7.18,0-13-5.82-13-12.998c0-7.182,5.82-13,13-13
			C24.944-0.002,30.766,5.816,30.766,12.998z"/><path fill="#545C66" d="M35.266,38.498c0,0.549-0.45,1-1,1h-3c-0.55,0-1-0.451-1-1v-1c0-0.551,0.45-1,1-1h3c0.55,0,1,0.449,1,1
			V38.498z"/><circle cx="13.266" cy="29.498" r="1" fill="#F6BB42"/><circle cx="52.266" cy="29.498" r="1" fill="#F6BB42"/><path fill="none" stroke="#3A3847" stroke-linecap="round" stroke-linejoin="round" stroke-miterlimit="10" d="M13.909 14.113"/><path fill="#E6E9ED" d="M24.266 63.998c-.229 0-.435-.158-.487-.391l-4.999-22c-.062-.268.107-.537.377-.598.271-.064.537.107.598.377l4.999 22c.062.27-.107.537-.377.598C24.339 63.994 24.302 63.998 24.266 63.998zM41.266 63.998c-.036 0-.073-.004-.11-.014-.27-.061-.438-.328-.377-.598l5.001-22c.062-.27.324-.439.598-.377.27.061.438.33.377.598l-5.001 22C41.7 63.84 41.494 63.998 41.266 63.998zM34.313 64.002c-.173 0-.342-.092-.435-.252L22.058 43.043c-.137-.24-.053-.545.187-.684.235-.133.544-.053.683.188l11.821 20.707c.137.24.053.545-.187.682C34.483 63.98 34.398 64.002 34.313 64.002z"/><path fill="#E6E9ED" d="M41.502 62.945c-.173 0-.342-.092-.435-.252l-10.83-18.969c-.137-.24-.053-.545.187-.684.236-.133.544-.053.683.188l10.83 18.969c.137.24.053.545-.187.682C41.672 62.924 41.587 62.945 41.502 62.945zM43.722 53.189c-.173 0-.342-.092-.435-.252l-5.354-9.377c-.137-.24-.053-.545.187-.684.236-.133.544-.053.683.188l5.354 9.377c.137.24.053.545-.187.682C43.892 53.168 43.807 53.189 43.722 53.189zM21.809 53.186c-.085 0-.17-.021-.248-.066-.239-.137-.323-.441-.187-.682l5.35-9.367c.138-.24.444-.32.683-.188.239.139.323.443.187.684l-5.35 9.367C22.15 53.094 21.981 53.186 21.809 53.186z"/><path fill="#E6E9ED" d="M24.027 62.949c-.085 0-.17-.021-.248-.064-.239-.139-.323-.443-.187-.684l10.834-18.977c.138-.24.444-.32.683-.186.239.137.323.441.187.682L24.462 62.697C24.369 62.859 24.2 62.949 24.027 62.949zM31.22 63.998c-.085 0-.17-.021-.248-.066-.239-.137-.323-.441-.187-.682l11.817-20.703c.138-.24.444-.32.683-.186.239.137.323.441.187.682L31.654 63.746C31.562 63.906 31.393 63.998 31.22 63.998z"/><path fill="#E9573F" d="M25.047,13.385c0.136-0.146,0.26-0.293,0.408-0.443c1.773-1.773,4.074-1.52,5.245-1.23
			c-0.034-0.357-0.093-0.707-0.156-1.055c-1.46-0.281-3.871-0.344-5.796,1.578c-0.106,0.107-0.192,0.213-0.293,0.318
			c-0.717-0.967-1.561-1.969-2.549-2.99l5.388-5.387c-0.227-0.246-0.462-0.48-0.707-0.707l-5.388,5.387
			c-1.012-0.979-2.004-1.816-2.965-2.529c0.104-0.098,0.209-0.184,0.314-0.289c1.919-1.92,1.881-4.338,1.614-5.809
			c-0.347-0.064-0.695-0.123-1.051-0.16c0.275,1.189,0.496,3.494-1.271,5.262c-0.147,0.148-0.292,0.27-0.438,0.402
			c-2.981-2.039-5.571-2.914-7.218-3.283c-0.359,0.26-0.704,0.537-1.034,0.83c1.33,0.217,4.115,0.916,7.45,3.131
			c-1.811,1.398-3.572,1.928-5.554,2.506c-1.827,0.533-3.865,1.145-6.185,2.549c-0.048,0.406-0.074,0.818-0.084,1.234
			c2.451-1.609,4.535-2.236,6.549-2.824c2.09-0.609,4.082-1.201,6.137-2.869c0.979,0.711,1.994,1.559,3.026,2.557L8.236,21.818
			c0.227,0.246,0.463,0.48,0.707,0.707L21.199,10.27c1.007,1.041,1.862,2.066,2.576,3.053c-1.663,2.053-2.25,4.037-2.854,6.121
			c-0.582,2.008-1.205,4.086-2.813,6.535c0.418-0.01,0.831-0.039,1.238-0.088c1.399-2.316,2.006-4.348,2.534-6.168
			c0.572-1.975,1.097-3.729,2.489-5.535c2.212,3.34,2.896,6.105,3.11,7.426c0.294-0.332,0.572-0.678,0.832-1.039
			C27.945,18.934,27.074,16.354,25.047,13.385z"/><g><path fill="#656D78" d="M32.766,44.498c-5.415,0-14.5-0.391-14.5-3c0-2.611,9.085-3,14.5-3s14.5,0.389,14.5,3
				C47.266,44.107,38.181,44.498,32.766,44.498z M21.183,41.498c1.789,0.471,5.684,1,11.583,1c5.9,0,9.795-0.529,11.583-1
				c-1.788-0.471-5.683-1-11.583-1C26.866,40.498,22.972,41.027,21.183,41.498z"/></g></svg>